<svg height="125" viewBox="0 0 200 125" width="200" xmlns="http://www.w3.org/2000/svg"><g fill="#219cfb" fill-rule="evenodd"><g transform="translate(17.0021 11.2592)"><path d="m124.562592 20.89623-2.788821 2.1183585c-.260323.1977383-.631655.1470037-.829393-.1133191-.16075-.2116267-.16075-.5044472 0-.7160739l2.118358-2.7888211c.296811-.3907523.296829-.9314178.000045-1.3221901l-2.117535-2.7881272c-.197772-.2604041-.146999-.6318295.113405-.8296019.211669-.1607591.504528-.1607591.716197 0l2.788128 2.1175342c.390772.2967848.931437.2967665 1.32219-.0000447l2.788821-2.1183585c.260323-.1977383.631654-.1470036.829393.1133191.160749.2116267.160749.5044472 0 .7160739l-2.118359 2.7888211c-.296811.3907523-.296829.9314178-.000044 1.3221901l2.117534 2.7881272c.197772.2604041.146999.6318296-.113405.8296019-.211669.1607591-.504528.1607591-.716197 0l-2.788127-2.1175342c-.390773-.2967848-.931438-.2967665-1.32219.0000447z" opacity=".406581" transform="matrix(.70710678 .70710678 -.70710678 .70710678 49.924947 -83.059285)"/><path d="m36.1055855 76.3361027-2.7888211 2.1183585c-.2603228.1977383-.6316547.1470037-.829393-.1133191-.1607493-.2116267-.1607493-.5044472 0-.7160739l2.1183585-2.7888211c.2968112-.3907523.2968295-.9314178.0000446-1.3221901l-2.1175342-2.7881272c-.1977724-.2604041-.1469993-.6318295.1134048-.8296019.2116691-.1607591.504528-.1607591.7161972 0l2.7881272 2.1175342c.3907723.2967848.9314378.2967665 1.3221901-.0000447l2.7888211-2.1183585c.2603227-.1977383.6316546-.1470036.829393.1133191.1607493.2116267.1607493.5044472 0 .7160739l-2.1183585 2.7888211c-.2968112.3907523-.2968295.9314178-.0000447 1.3221901l2.1175342 2.7881272c.1977724.2604041.1469994.6318296-.1134047.829602-.2116692.160759-.504528.160759-.7161972 0l-2.7881272-2.1175343c-.3907724-.2967848-.9314378-.2967665-1.3221901.0000447z" transform="matrix(.70710678 .70710678 -.70710678 .70710678 63.218421 -4.27277)"/><path d="m45.6646266 17.5466051-2.7888212 2.1183585c-.2603227.1977383-.6316546.1470036-.8293929-.1133191-.1607494-.2116267-.1607494-.5044472 0-.7160739l2.1183584-2.7888211c.2968113-.3907523.2968295-.9314178.0000447-1.3221901l-2.1175342-2.7881272c-.1977724-.2604041-.1469994-.6318296.1134047-.829602.2116692-.160759.5045281-.160759.7161972 0l2.7881272 2.1175343c.3907724.2967848.9314378.2967665 1.3221901-.0000447l2.7888212-2.1183585c.2603227-.1977383.6316546-.1470037.8293929.1133191.1607494.2116267.1607494.5044472 0 .7160739l-2.1183584 2.7888211c-.2968113.3907523-.2968295.9314177-.0000447 1.3221901l2.1175342 2.7881272c.1977724.2604041.1469993.6318295-.1134048.8296019-.2116691.1607591-.504528.1607591-.7161971 0l-2.7881272-2.1175342c-.3907724-.2967848-.9314378-.2967665-1.3221901.0000447z" transform="matrix(.70710678 .70710678 -.70710678 .70710678 24.447733 -28.251049)"/><path d="m148.562592 48.5241-2.788821 2.1183585c-.260323.1977383-.631655.1470036-.829393-.1133191-.16075-.2116267-.16075-.5044472 0-.7160739l2.118358-2.7888211c.296811-.3907523.296829-.9314178.000045-1.3221901l-2.117535-2.7881272c-.197772-.2604041-.146999-.6318296.113405-.829602.211669-.160759.504528-.160759.716197 0l2.788128 2.1175343c.390772.2967848.931437.2967665 1.32219-.0000447l2.788821-2.1183585c.260323-.1977383.631654-.1470037.829393.1133191.160749.2116267.160749.5044472 0 .7160739l-2.118359 2.7888211c-.296811.3907523-.296829.9314177-.000044 1.3221901l2.117534 2.7881272c.197772.2604041.146999.6318295-.113405.8296019-.211669.1607591-.504528.1607591-.716197 0l-2.788127-2.1175342c-.390773-.2967848-.931438-.2967665-1.32219.0000447z" opacity=".337378" transform="matrix(.70710678 .70710678 -.70710678 .70710678 76.49026 -91.937823)"/><path d="m98.9917581 100.549938-2.0420863 1.551146c-.1886395.143289-.4577203.106525-.6010088-.082115-.1164849-.153352-.1164849-.365541 0-.518893l1.5511468-2.0420866c.2055603-.2706205.205573-.6450651.0000309-.9156994l-1.550548-2.0415846c-.1433132-.1886985-.1065212-.457847.0821772-.6011602.1533833-.1164919.3655996-.1164919.5189829 0l2.0415846 1.550548c.2706343.2055421.645079.2055295.9156994-.0000309l2.0420862-1.5511468c.18864-.1432885.45772-.1065242.601009.0821152.116485.1533525.116485.3655411 0 .5188936l-1.551147 2.0420863c-.20556.2706205-.205573.6450651-.000031.9156994l1.550548 2.041585c.143313.188698.106521.457847-.082177.60116-.153383.116492-.3656.116492-.518983 0l-2.0415845-1.550548c-.2706343-.205542-.645079-.20553-.9156994.000031z" opacity=".337378" transform="matrix(.70710678 .70710678 -.70710678 .70710678 99.131714 -41.325129)"/><path d="m78.6259012 89.5874279-1.4262067 1.0833312c-.1320477.100302-.3204042.074567-.4207062-.0574806-.0815394-.1073468-.0815394-.2558788 0-.3632255l1.0833313-1.4262067c.1453531-.1913575.145362-.4561299.0000218-.6474973l-1.0829123-1.4258552c-.1003192-.1320889-.0745648-.3204929.0575241-.4208122.1073683-.0815443.2559197-.0815443.363288 0l1.4258553 1.0829124c.1913674.1453402.4561397.1453312.6474973-.0000219l1.4262067-1.0833312c.1320476-.100302.3204041-.074567.4207061.0574806.0815394.1073468.0815394.2558788 0 .3632255l-1.0833312 1.4262067c-.1453532.1913575-.1453621.4561299-.0000219.6474973l1.0829123 1.4258552c.1003192.1320889.0745648.3204929-.0575241.4208122-.1073683.0815443-.2559197.0815443-.363288 0l-1.4258553-1.0829124c-.1913673-.1453402-.4561397-.1453312-.6474972.0000219z" opacity=".337378" transform="matrix(.70710678 .70710678 -.70710678 .70710678 85.702782 -29.904818)"/><path d="m4.62590116 57.5874279-1.42620669 1.0833312c-.13204762.100302-.32040417.074567-.42070613-.0574806-.08153943-.1073468-.08153943-.2558788 0-.3632255l1.08333122-1.4262067c.14535313-.1913575.14536207-.4561299.00002189-.6474973l-1.08291234-1.4258552c-.10031922-.1320889-.07456481-.3204929.05752408-.4208122.1073683-.0815443.25591973-.0815443.36328804 0l1.42585529 1.0829124c.19136736.1453402.45613972.1453312.64749726-.0000219l1.42620668-1.0833312c.13204763-.100302.32040418-.074567.42070613.0574806.08153944.1073468.08153944.2558788 0 .3632255l-1.08333122 1.4262067c-.14535312.1913575-.14536207.4561299-.00002188.6474973l1.08291234 1.4258552c.10031922.1320889.07456481.3204929-.05752408.4208122-.10736831.0815443-.25591974.0815443-.36328804 0l-1.42585529-1.0829124c-.19136736-.1453402-.45613972-.1453312-.64749726.0000219z" opacity=".337378" transform="matrix(.70710678 .70710678 -.70710678 .70710678 41.401267 13.0485)"/><path d="m22.7262677 37.0850666-2.2301396 1.6939899c-.2082582.1581907-.5053237.117603-.6635143-.0906552-.1285995-.1693014-.1285995-.4035578 0-.5728591l1.6939899-2.2301396c.2378609-.3131441.2378755-.7464267.0000358-1.0595868l-1.6933306-2.2295844c-.1582179-.2083233-.1175995-.5054636.0907238-.6636815.1693353-.1286073.4036224-.1286073.5729578 0l2.2295843 1.6933306c.3131602.2378397.7464428.237825 1.0595869-.0000358l2.2301395-1.69399c.2082582-.1581906.5053237-.1176029.6635144.0906553.1285995.1693013.1285995.4035578 0 .5728591l-1.69399 2.2301395c-.2378608.3131441-.2378755.7464268-.0000358 1.0595869l1.6933306 2.2295844c.1582179.2083232.1175995.5054636-.0907238.6636815-.1693353.1286072-.4036224.1286072-.5729577 0l-2.2295844-1.6933306c-.3131601-.2378397-.7464427-.2378251-1.0595868.0000358z" opacity=".351327" transform="matrix(.70710678 .70710678 -.70710678 .70710678 31.811697 -6.089231)"/><path d="m128.043393 69.5360782-2.23014 1.6939899c-.208258.1581907-.505323.1176029-.663514-.0906553-.1286-.1693013-.1286-.4035577 0-.5728591l1.69399-2.2301395c.237861-.3131441.237875-.7464267.000036-1.0595869l-1.693331-2.2295843c-.158218-.2083233-.1176-.5054636.090724-.6636816.169335-.1286072.403622-.1286072.572958 0l2.229584 1.6933306c.31316.2378398.746443.2378251 1.059587-.0000358l2.230139-1.6939899c.208258-.1581907.505324-.1176029.663515.0906553.128599.1693013.128599.4035577 0 .5728591l-1.69399 2.2301395c-.237861.3131441-.237876.7464267-.000036 1.0595869l1.69333 2.2295843c.158218.2083233.1176.5054636-.090723.6636816-.169336.1286072-.403623.1286072-.572958 0l-2.229584-1.6933306c-.313161-.2378397-.746443-.2378251-1.059587.0000358z" transform="matrix(.70710678 .70710678 -.70710678 .70710678 85.604684 -71.054988)"/><path d="m97.0433927 9.53607816-2.2301395 1.69398994c-.2082582.1581907-.5053237.1176029-.6635144-.0906553-.1285994-.1693013-.1285994-.4035577 0-.5728591l1.69399-2.23013951c.2378608-.31314408.2378755-.7464267.0000358-1.05958686l-1.6933306-2.22958435c-.1582179-.20832328-.1175995-.50546362.0907238-.66368153.1693353-.12860725.4036224-.12860725.5729577 0l2.2295844 1.6933306c.3131601.2378397.7464427.23782506 1.0595868-.00003581l2.2301393-1.69398994c.208258-.15819068.505324-.11760294.663515.09065525.128599.16930135.128599.40355778 0 .57285912l-1.6939903 2.23013954c-.2378609.31314408-.2378755.7464267-.0000358 1.05958686l1.6933301 2.22958433c.158218.2083233.1176.5054636-.090723.6636816-.169336.1286072-.403623.1286072-.572958 0l-2.2295844-1.69333065c-.3131602-.2378397-.7464428-.23782506-1.0595869.00003581z" transform="matrix(.70710678 .70710678 -.70710678 .70710678 34.098587 -66.708271)"/></g><path d="m87.6435784 46.0734503 8.6589748-16.8994921c.9989344-1.9495936 3.4141504-2.7328464 5.3945358-1.749444.777476.386072 1.406429 1.0104476 1.792081 1.7790378l8.177582 16.2976272c.668026 1.3313511 1.974031 2.240369 3.471761 2.4164472l17.124478 2.0132119c2.324769.2733078 3.984307 2.3501624 3.706683 4.6387847-.114339.9425667-.551672 1.8185971-1.239834 2.4835386l-13.535228 13.0785162c-.54651.5280695-.811329 1.2769965-.716037 2.0250036l2.249355 17.6566581c.322015 2.5277021-1.498412 4.8337951-4.066037 5.1508029-.973069.1201384-1.959902-.0633266-2.821449-.5245437l-14.300238-7.6554343c-1.034584-.5538502-2.2800684-.5697649-3.3289061-.0425364l-14.8160572 7.4477173c-2.0851797 1.0481756-4.6386866.2338004-5.7034171-1.818958-.398374-.7680492-.5452741-1.6387316-.4205006-2.492322l1.1841433-8.1008676c.5791696-3.9621692 3.0805908-7.3990749 6.7053485-9.2130228l16.4556812-8.234964c.439391-.2198854.614519-.7487959.391161-1.1813545-.173047-.3351252-.543504-.5247311-.921557-.4716686l-20.1252708 2.8247274c-3.0765074.4318101-6.196543-.4192394-8.6086134-2.3481642l-6.7032719-5.3605848c-1.9129047-1.5297437-2.2039318-4.2964503-.6500273-6.1796122.722617-.8757325 1.759794-1.4441869 2.8965835-1.5875549l17.1851828-2.1673378c1.1021999-.1390057 2.062446-.8075008 2.5628935-1.784211z"/></g></svg>