<svg height="125" viewBox="0 0 200 125" width="200" xmlns="http://www.w3.org/2000/svg"><g fill="#219cfb" fill-rule="evenodd" transform="translate(20.9866 11.2379)"><path d="m85.9948015 15.5846151-29.4657005 35.5272127c-.7910217.953746-.6591075 2.3681597.2946385 3.1591813.4026017.3339115.9092178.516663 1.4322714.516663h10.0111442c1.239091 0 2.2435728 1.0044818 2.2435728 2.2435728 0 .1234315-.0101859.2466525-.0304541.3684085l-4.451025 26.7383865c-.2034663 1.2222717.6224386 2.3780607 1.8447103 2.5815271.797049.1326813 1.6038749-.1734783 2.1122581-.8015213l29.5283484-36.4785318c.7796034-.9631016.6308494-2.3758434-.3322523-3.1554472-.3994181-.3233177-.8977208-.4997231-1.4115974-.4997231h-9.3572323c-1.2390911 0-2.2435729-1.0044818-2.2435729-2.2435729 0-.1076315.0077452-.2151235.0231754-.3216433l3.7490228-25.8805977c.1776387-1.2262916-.6724625-2.364402-1.8987542-2.5420407-.773515-.1120502-1.5495959.1865262-2.0485532.7881261z"/><path d="m114.035786.18826498-7.273244 8.61842476c-.18886.22379021-.160544.55830977.063246.74717035.095658.08072782.216792.12501059.341962.12501059h2.501494c.292832 0 .530218.23738696.530218.53021862 0 .0296726-.00249.0592928-.007446.0885487l-1.102117 6.506663c-.048904.2887192.145505.5624169.434224.611321.187215.031711.377094-.0391114.497815-.1856774l7.290186-8.85099793c.186173-.22603146.15386-.56018869-.072171-.74636109-.094936-.07819439-.214103-.12095246-.337095-.12095246h-2.340855c-.292831 0-.530218-.23738696-.530218-.53021861 0-.02587617.001894-.05171763.005667-.07731721l.928093-6.29655279c.042701-.28970156-.157533-.55916716-.447234-.60186828-.181605-.02676793-.364135.04230195-.482525.18258875z" opacity=".687097"/><path d="m27.802257 23.1987483-6.7046163 8.4243596c-.1754528.2204568-.13897.541405.0814868.7168579.0902944.0718618.2022854.1109871.3176855.1109871h2.2961389c.2817533 0 .5101594.2284061.5101594.5101594 0 .0269503-.0021355.0538583-.0063866.0804713l-1.0161734 6.3615297c-.044443.2782261.1450755.539801.4233015.5842441.1838727.0293713.3691425-.0437691.4833667-.1908224l6.7184627-8.6494145c.1728377-.222513.132568-.5430081-.089945-.7158458-.089506-.0695241-.1996148-.107264-.3129504-.107264h-2.1465905c-.2817532 0-.5101594-.2284062-.5101594-.5101594 0-.0234968.0016233-.0469655.0048584-.0702386l.8558351-6.1569403c.0387917-.2790701-.1559925-.5367479-.4350625-.5755396-.1786335-.0248306-.3571031.0465006-.4694109.1876155z"/><path d="m57.7748529 4.90248851-4.6980894 5.95276209c-.1221259.1547409-.0956863.3791859.0590546.5013118.0629873.0497114.1408876.0767489.2211286.0767489h1.6122674c.1971282 0 .3569321.1598039.3569321.356932 0 .018701-.0014697.0373732-.0043956.0558439l-.7126203 4.4986917c-.0308417.1947005.101992.3775386.2966925.4083804.1290204.0204376.2588991-.0312375.3386133-.1347247l4.7077624-6.1117505c.1202941-.1561692.0912116-.380287-.0649576-.5005812-.062427-.04808624-.1390119-.07416262-.2178118-.07416262h-1.5073805c-.1971281 0-.3569321-.15980392-.3569321-.35693204 0-.0163041.0011172-.03258903.0033435-.0487404l.6001646-4.35391035c.0269186-.19528156-.1095666-.37541037-.3048481-.40232894-.1253708-.01728173-.2505188.0331163-.3289236.13245996z" opacity=".176794"/><path d="m157.774853 49.9024885-4.698089 5.9527621c-.122126.1547409-.095687.3791859.059054.5013118.062987.0497114.140888.0767489.221129.0767489h1.612267c.197128 0 .356932.1598039.356932.356932 0 .018701-.00147.0373732-.004395.0558439l-.712621 4.4986917c-.030841.1947005.101992.3775386.296693.4083804.12902.0204376.258899-.0312375.338613-.1347247l4.707763-6.1117505c.120294-.1561692.091211-.380287-.064958-.5005812-.062427-.0480862-.139012-.0741626-.217812-.0741626h-1.50738c-.197129 0-.356932-.1598039-.356932-.3569321 0-.0163041.001117-.032589.003343-.0487404l.600165-4.3539103c.026918-.1952816-.109567-.3754104-.304849-.402329-.12537-.0172817-.250518.0331163-.328923.13246z" opacity=".33598"/><path d="m126.774853 32.9024885-4.698089 5.9527621c-.122126.1547409-.095687.3791859.059054.5013118.062987.0497114.140888.0767489.221129.0767489h1.612267c.197128 0 .356932.1598039.356932.356932 0 .018701-.00147.0373732-.004395.0558439l-.712621 4.4986917c-.030841.1947005.101992.3775386.296693.4083804.12902.0204376.258899-.0312375.338613-.1347247l4.707763-6.1117505c.120294-.1561692.091211-.380287-.064958-.5005812-.062427-.0480862-.139012-.0741626-.217812-.0741626h-1.50738c-.197129 0-.356932-.1598039-.356932-.3569321 0-.0163041.001117-.032589.003343-.0487404l.600165-4.3539103c.026918-.1952816-.109567-.3754104-.304849-.402329-.12537-.0172817-.250518.0331163-.328923.13246z"/><path d="m4.77485287 60.9024885-4.69808937 5.9527621c-.12212594.1547409-.09568627.3791859.05905465.5013118.06298727.0497114.1408876.0767489.22112858.0767489h1.61226741c.19712813 0 .35693205.1598039.35693205.356932 0 .018701-.00146973.0373732-.00439561.0558439l-.71262027 4.4986917c-.03084175.1947005.10199201.3775386.29669251.4083804.12902039.0204376.25889913-.0312375.33861332-.1347247l4.70776236-6.1117505c.12029411-.1561692.09121159-.380287-.06495763-.5005812-.06242698-.0480862-.13901189-.0741626-.21781175-.0741626h-1.50738053c-.19712812 0-.35693204-.1598039-.35693204-.3569321 0-.0163041.00111711-.032589.0033435-.0487404l.60016459-4.3539103c.02691857-.1952816-.10956659-.3754104-.30484815-.402329-.12537076-.0172817-.25051877.0331163-.32892362.13246z" opacity=".377448"/><path d="m121.801073 61.2001308-6.703092 8.4219806c-.17568.2207299-.139159.5420835.08157.7177634.09041.0719576.202547.1111354.318097.1111354h2.294385c.282109 0 .510803.228694.510803.5108023 0 .0269858-.002139.0539291-.006396.080577l-1.015783 6.3587374c-.044501.2785763.145254.5404825.42383.5849839.184101.0294094.369602-.0438184.483972-.1910514l6.716893-8.6469184c.173061-.2227887.132749-.5436887-.090039-.7167502-.089621-.069617-.199873-.1074076-.313356-.1074076h-2.144857c-.282108 0-.510802-.2286939-.510802-.5108023 0-.0235276.001625-.0470272.004865-.0703308l.855514-6.1542919c.038842-.2794215-.156185-.5374255-.435607-.5762682-.178855-.0248627-.357546.0465538-.469997.1878408z" opacity=".338008"/><path d="m93.4589003 86.9095818-5.3375327 6.4107371c-.144151.173135-.1206547.4303462.0524804.5744972.0732893.0610202.1656418.0944336.2610084.0944336h1.8096408c.2252893 0 .4079223.182633.4079223.4079223 0 .0225274-.0018661.0450161-.0055791.0672355l-.8056997 4.8213801c-.0371331.222208.1128997.4324456.3351077.4695787.1447212.0241843.291281-.0312187.3838137-.1450906l5.3488304-6.5823363c.1420766-.1748413.1155157-.4317541-.0593256-.5738308-.0727156-.0590889-.163556-.0913442-.2572526-.0913442h-1.6912199c-.2252893 0-.4079223-.182633-.4079223-.4079223 0-.0196441.001419-.0392625.0042459-.0587022l.6786476-4.6668474c.0324203-.2229444-.12203-.4299583-.3449743-.4623787-.140434-.0204217-.2813894.0336092-.372191.142668z"/><path d="m46.4589003 66.9095818-5.3375327 6.4107371c-.144151.173135-.1206547.4303462.0524804.5744972.0732893.0610202.1656418.0944336.2610084.0944336h1.8096408c.2252893 0 .4079223.182633.4079223.4079223 0 .0225274-.0018661.0450161-.0055791.0672355l-.8056997 4.8213801c-.0371331.222208.1128997.4324456.3351077.4695787.1447212.0241843.291281-.0312187.3838137-.1450906l5.3488304-6.5823363c.1420766-.1748413.1155157-.4317541-.0593256-.5738308-.0727156-.0590889-.163556-.0913442-.2572526-.0913442h-1.6912199c-.2252893 0-.4079223-.182633-.4079223-.4079223 0-.0196441.001419-.0392625.0042459-.0587022l.6786476-4.6668474c.0324203-.2229444-.12203-.4299583-.3449743-.4623787-.140434-.0204217-.2813894.0336092-.372191.142668z"/></g></svg>